<?xml version="1.0" encoding="UTF-8" standalone="no"?>
<!DOCTYPE svg PUBLIC "-//W3C//DTD SVG 1.1//EN" "http://www.w3.org/Graphics/SVG/1.1/DTD/svg11.dtd">
<svg version="1.1" xmlns="http://www.w3.org/2000/svg" xmlns:xlink="http://www.w3.org/1999/xlink" preserveAspectRatio="xMidYMid meet" viewBox="0 0 640 640" width="640" height="640"><defs><path d="M320 589.09L320 391.21L202.27 317.45L79.57 366.39L320 589.09Z" id="b1Xy3kPtaU"></path><path d="M320 589.09L320 391.21L437.73 317.45L560.43 366.39L320 589.09Z" id="b55GjgkvJv"></path><path d="M496.6 340.86L437.02 317.45L320 390.5L202.98 317.45L79.57 367.1L79.57 286.96L320 55.04" id="d5cBeuXoa"></path><clipPath id="clipb3vNcKi1Ep"><use xlink:href="#d5cBeuXoa" opacity="1"></use></clipPath><path d="M204.4 310.78L320 63.97L356.88 143.4" id="aeUNclJXg"></path><path d="M440.21 199.37L440.21 215.74L381.7 199.37L434.18 310.78" id="aAGhRNJLr"></path><path d="M560.43 316.45L560.43 285.25L435.6 169.65L435.6 208.65" id="h1GwxKq4U"></path><clipPath id="clipb9WT7kk1B"><use xlink:href="#h1GwxKq4U" opacity="1"></use></clipPath><path d="M320 243.05L199.79 243.05" id="c1dtucbK0T"></path></defs><g><g><g><use xlink:href="#b1Xy3kPtaU" opacity="1" fill="#ad312b" fill-opacity="1"></use><g><use xlink:href="#b1Xy3kPtaU" opacity="1" fill-opacity="0" stroke="#000000" stroke-width="0" stroke-opacity="1"></use></g></g><g><use xlink:href="#b55GjgkvJv" opacity="1" fill="#dd2d24" fill-opacity="1"></use><g><use xlink:href="#b55GjgkvJv" opacity="1" fill-opacity="0" stroke="#000000" stroke-width="0" stroke-opacity="1"></use></g></g><g><g clip-path="url(#clipb3vNcKi1Ep)"><use xlink:href="#d5cBeuXoa" opacity="1" fill-opacity="0" stroke="#ffffff" stroke-width="19.2" stroke-opacity="1"></use></g></g><g><g><use xlink:href="#aeUNclJXg" opacity="1" fill-opacity="0" stroke="#ffffff" stroke-width="9.6" stroke-opacity="1"></use></g></g><g><g><use xlink:href="#aAGhRNJLr" opacity="1" fill-opacity="0" stroke="#ffffff" stroke-width="9.6" stroke-opacity="1"></use></g></g><g><g clip-path="url(#clipb9WT7kk1B)"><use xlink:href="#h1GwxKq4U" opacity="1" fill-opacity="0" stroke="#ffffff" stroke-width="19.2" stroke-opacity="1"></use></g></g><g><g><use xlink:href="#c1dtucbK0T" opacity="1" fill-opacity="0" stroke="#ffffff" stroke-width="9.6" stroke-opacity="1"></use></g></g></g></g></svg>