<?xml version="1.0" encoding="UTF-8" standalone="no"?>
<!DOCTYPE svg PUBLIC "-//W3C//DTD SVG 1.1//EN" "http://www.w3.org/Graphics/SVG/1.1/DTD/svg11.dtd">
<svg version="1.1" xmlns="http://www.w3.org/2000/svg" xmlns:xlink="http://www.w3.org/1999/xlink" preserveAspectRatio="xMidYMid meet" viewBox="0 0 640 640" width="640" height="640"><defs><path d="M320 589.09L320 391.21L202.27 317.45L79.57 366.39L320 589.09Z" id="a1HkdAA11"></path><path d="M320 589.09L320 391.21L437.73 317.45L560.43 366.39L320 589.09Z" id="a1lFM03TQH"></path><path d="M496.6 341.86L437.02 318.45L320 391.5L202.98 318.45L79.57 368.1L79.57 287.96L320 56.04" id="lberlbgJZ"></path><clipPath id="clipbQNx5Z159"><use xlink:href="#lberlbgJZ" opacity="1"></use></clipPath><path d="M204.4 311.78L320 64.97L356.88 144.4" id="a7ygd819Tc"></path><path d="M440.21 200.37L440.21 216.74L381.7 200.37L434.18 311.78" id="b1g5iHFVUq"></path><path d="M560.43 317.45L560.43 286.25L435.6 170.65L435.6 209.65" id="bzZCZWFHe"></path><clipPath id="clipe4VBuLvZAG"><use xlink:href="#bzZCZWFHe" opacity="1"></use></clipPath><path d="M320 244.05L199.79 244.05" id="aWK80Fv92"></path></defs><g><g><g><use xlink:href="#a1HkdAA11" opacity="1" fill="#898989" fill-opacity="1"></use><g><use xlink:href="#a1HkdAA11" opacity="1" fill-opacity="0" stroke="#000000" stroke-width="0" stroke-opacity="1"></use></g></g><g><use xlink:href="#a1lFM03TQH" opacity="1" fill="#dadada" fill-opacity="1"></use><g><use xlink:href="#a1lFM03TQH" opacity="1" fill-opacity="0" stroke="#000000" stroke-width="0" stroke-opacity="1"></use></g></g><g><g clip-path="url(#clipbQNx5Z159)"><use xlink:href="#lberlbgJZ" opacity="1" fill-opacity="0" stroke="#000000" stroke-width="19.2" stroke-opacity="1"></use></g></g><g><g><use xlink:href="#a7ygd819Tc" opacity="1" fill-opacity="0" stroke="#000000" stroke-width="9.6" stroke-opacity="1"></use></g></g><g><g><use xlink:href="#b1g5iHFVUq" opacity="1" fill-opacity="0" stroke="#000000" stroke-width="9.6" stroke-opacity="1"></use></g></g><g><g clip-path="url(#clipe4VBuLvZAG)"><use xlink:href="#bzZCZWFHe" opacity="1" fill-opacity="0" stroke="#000000" stroke-width="19.2" stroke-opacity="1"></use></g></g><g><g><use xlink:href="#aWK80Fv92" opacity="1" fill-opacity="0" stroke="#000000" stroke-width="9.6" stroke-opacity="1"></use></g></g></g></g></svg>