<?xml version="1.0" encoding="UTF-8" standalone="no"?>
<!DOCTYPE svg PUBLIC "-//W3C//DTD SVG 1.1//EN" "http://www.w3.org/Graphics/SVG/1.1/DTD/svg11.dtd">
<svg version="1.1" xmlns="http://www.w3.org/2000/svg" xmlns:xlink="http://www.w3.org/1999/xlink" preserveAspectRatio="xMidYMid meet" viewBox="0 0 640 640" width="640" height="640"><defs><path d="M320 589.09L320 391.21L202.27 317.45L79.57 366.39L320 589.09Z" id="b1Xy3kPtaU"></path><path d="M320 589.09L320 391.21L437.73 317.45L560.43 366.39L320 589.09Z" id="b55GjgkvJv"></path><path d="M496.6 341.86L437.02 318.45L320 391.5L202.98 318.45L79.57 368.1L79.57 287.96L320 56.04" id="azZTyuc75"></path><clipPath id="clipl2r7tRiyFf"><use xlink:href="#azZTyuc75" opacity="1"></use></clipPath><path d="M204.4 311.78L320 64.97L356.88 144.4" id="aY9iGhjY1"></path><path d="M440.21 200.37L440.21 216.74L381.7 200.37L434.18 311.78" id="hTSuSDTNk"></path><path d="M560.43 317.45L560.43 286.25L435.6 170.65L435.6 209.65" id="a29K0pRH9B"></path><clipPath id="clipgvC1uSCpu"><use xlink:href="#a29K0pRH9B" opacity="1"></use></clipPath><path d="M320 244.05L199.79 244.05" id="d3AlTSOBp"></path></defs><g><g><g><use xlink:href="#b1Xy3kPtaU" opacity="1" fill="#ad312b" fill-opacity="1"></use><g><use xlink:href="#b1Xy3kPtaU" opacity="1" fill-opacity="0" stroke="#000000" stroke-width="0" stroke-opacity="1"></use></g></g><g><use xlink:href="#b55GjgkvJv" opacity="1" fill="#dd2d24" fill-opacity="1"></use><g><use xlink:href="#b55GjgkvJv" opacity="1" fill-opacity="0" stroke="#000000" stroke-width="0" stroke-opacity="1"></use></g></g><g><g clip-path="url(#clipl2r7tRiyFf)"><use xlink:href="#azZTyuc75" opacity="1" fill-opacity="0" stroke="#000000" stroke-width="19.2" stroke-opacity="1"></use></g></g><g><g><use xlink:href="#aY9iGhjY1" opacity="1" fill-opacity="0" stroke="#000000" stroke-width="9.6" stroke-opacity="1"></use></g></g><g><g><use xlink:href="#hTSuSDTNk" opacity="1" fill-opacity="0" stroke="#000000" stroke-width="9.6" stroke-opacity="1"></use></g></g><g><g clip-path="url(#clipgvC1uSCpu)"><use xlink:href="#a29K0pRH9B" opacity="1" fill-opacity="0" stroke="#000000" stroke-width="19.2" stroke-opacity="1"></use></g></g><g><g><use xlink:href="#d3AlTSOBp" opacity="1" fill-opacity="0" stroke="#000000" stroke-width="9.6" stroke-opacity="1"></use></g></g></g></g></svg>